<svg id="Layer_1" data-name="Layer 1" xmlns="http://www.w3.org/2000/svg" xmlns:xlink="http://www.w3.org/1999/xlink" viewBox="0 0 58.04 28.21"><defs><style>.cls-1{fill:url(#linear-gradient);}.cls-2{fill:#050505;}.cls-3{fill:url(#linear-gradient-2);}.cls-4,.cls-5{fill:none;}.cls-16,.cls-4{stroke-miterlimit:10;}.cls-4{stroke-width:0.12px;stroke:url(#linear-gradient-3);}.cls-10,.cls-11,.cls-12,.cls-13,.cls-14,.cls-15,.cls-4,.cls-5,.cls-6,.cls-7,.cls-8,.cls-9{fill-rule:evenodd;}.cls-6{fill:url(#linear-gradient-4);}.cls-7{fill:url(#linear-gradient-5);}.cls-8{fill:url(#linear-gradient-6);}.cls-9{fill:url(#linear-gradient-7);}.cls-10{fill:url(#linear-gradient-8);}.cls-11{fill:url(#linear-gradient-9);}.cls-12{fill:url(#linear-gradient-10);}.cls-13{fill:url(#linear-gradient-11);}.cls-14{fill:url(#linear-gradient-12);}.cls-15{fill:url(#linear-gradient-13);}.cls-16{stroke:#000;stroke-width:0.25px;}</style><linearGradient id="linear-gradient" x1="11.28" y1="13.49" x2="17.13" y2="13.49" gradientUnits="userSpaceOnUse"><stop offset="0" stop-color="#0071bc"/><stop offset="1" stop-color="#29abe2" stop-opacity="0.96"/></linearGradient><linearGradient id="linear-gradient-2" x1="28.97" y1="13.49" x2="33.36" y2="13.49" xlink:href="#linear-gradient"/><linearGradient id="linear-gradient-3" x1="26.79" y1="11.15" x2="28.85" y2="11.15" xlink:href="#linear-gradient"/><linearGradient id="linear-gradient-4" x1="27.36" y1="10.62" x2="27.6" y2="10.62" xlink:href="#linear-gradient"/><linearGradient id="linear-gradient-5" x1="27.68" y1="10.74" x2="28.16" y2="10.74" xlink:href="#linear-gradient"/><linearGradient id="linear-gradient-6" x1="28.09" y1="11.1" x2="28.54" y2="11.1" xlink:href="#linear-gradient"/><linearGradient id="linear-gradient-7" x1="27.65" y1="10.96" x2="27.89" y2="10.96" xlink:href="#linear-gradient"/><linearGradient id="linear-gradient-8" x1="27.08" y1="11.01" x2="27.53" y2="11.01" xlink:href="#linear-gradient"/><linearGradient id="linear-gradient-9" x1="27.22" y1="11.06" x2="27.38" y2="11.06" xlink:href="#linear-gradient"/><linearGradient id="linear-gradient-10" x1="28.31" y1="11.16" x2="28.4" y2="11.16" xlink:href="#linear-gradient"/><linearGradient id="linear-gradient-11" x1="27.89" y1="11.24" x2="28.13" y2="11.24" xlink:href="#linear-gradient"/><linearGradient id="linear-gradient-12" x1="28.01" y1="11.36" x2="28.25" y2="11.36" xlink:href="#linear-gradient"/><linearGradient id="linear-gradient-13" x1="27.61" y1="11.28" x2="27.78" y2="11.28" xlink:href="#linear-gradient"/></defs><path class="cls-1" d="M16.46,15.91h0a.63.63,0,0,1-.67-.59V14a.16.16,0,0,0-.29-.07l-.87,1.38a.52.52,0,0,1-.85,0l-.86-1.38c-.08-.12-.3-.07-.3.07v1.34a.63.63,0,0,1-.67.59h0a.63.63,0,0,1-.67-.59V11.63a.62.62,0,0,1,.66-.56h0a1.39,1.39,0,0,1,1.16.59l.68,1.08a.51.51,0,0,0,.85,0l.79-1.26a1,1,0,0,1,.81-.41h0a.85.85,0,0,1,.9.78v3.47A.63.63,0,0,1,16.46,15.91Z"/><path class="cls-2" d="M22,14.6H18.78a1.07,1.07,0,0,0,.36.34,1,1,0,0,0,.52.13,1.69,1.69,0,0,0,.5-.08.68.68,0,0,0,.36-.24l.81.62a2.26,2.26,0,0,1-.77.4,3.38,3.38,0,0,1-.9.13,3.06,3.06,0,0,1-.85-.12,2,2,0,0,1-.73-.34,1.64,1.64,0,0,1-.52-.56,1.76,1.76,0,0,1,0-1.59,1.67,1.67,0,0,1,.52-.57,2.25,2.25,0,0,1,.73-.35,3.48,3.48,0,0,1,.85-.11,3.14,3.14,0,0,1,.89.12,2.43,2.43,0,0,1,.72.36,1.71,1.71,0,0,1,.49.58,1.79,1.79,0,0,1,.2.77Zm-3-1.22a.84.84,0,0,0-.15.18.93.93,0,0,0-.1.2h2a1.86,1.86,0,0,0-.1-.2.84.84,0,0,0-.15-.18,1.36,1.36,0,0,0-.34-.21,1,1,0,0,0-.4-.07,1,1,0,0,0-.4.07A1.52,1.52,0,0,0,18.93,13.38Z"/><path class="cls-2" d="M22.14,14.08a1.9,1.9,0,0,1,.14-.73,1.63,1.63,0,0,1,.42-.58,2,2,0,0,1,.65-.37,2.74,2.74,0,0,1,.84-.13,2.07,2.07,0,0,1,.68.1,2.27,2.27,0,0,1,.54.27V11.46a.6.6,0,0,1,.63-.55h0a.6.6,0,0,1,.63.55V15.3a.6.6,0,0,1-.63.55h-.63v-.37a2.05,2.05,0,0,1-.54.31,1.87,1.87,0,0,1-.68.12,2.47,2.47,0,0,1-.84-.14,1.87,1.87,0,0,1-.65-.37,1.63,1.63,0,0,1-.42-.58A2,2,0,0,1,22.14,14.08Zm1.56-.7a.9.9,0,0,0-.24.32,1.21,1.21,0,0,0-.06.38,1.23,1.23,0,0,0,.06.39.82.82,0,0,0,.24.32A1.12,1.12,0,0,0,24,15a1,1,0,0,0,.41.07,1.25,1.25,0,0,0,.43-.07,1.11,1.11,0,0,0,.38-.22.7.7,0,0,0,.16-.19v-1a.9.9,0,0,0-.16-.19,1.19,1.19,0,0,0-.81-.29,1,1,0,0,0-.41.07A1.31,1.31,0,0,0,23.7,13.38Z"/><path class="cls-2" d="M27.77,12.39h0a.6.6,0,0,1,.63.55v2.42a.6.6,0,0,1-.63.55h0a.6.6,0,0,1-.63-.55V12.94A.6.6,0,0,1,27.77,12.39Z"/><path class="cls-3" d="M33.36,14.36a1.83,1.83,0,0,1-.1.55,1.32,1.32,0,0,1-.33.5,1.59,1.59,0,0,1-.58.36,2.6,2.6,0,0,1-.89.14H29.94a.91.91,0,0,1-1-.84V11.9a.9.9,0,0,1,1-.83h1.52a1.72,1.72,0,0,1,.64.11,1.65,1.65,0,0,1,.53.31,1.3,1.3,0,0,1,.36.45,1.18,1.18,0,0,1,.13.56.9.9,0,0,1-.11.41,3.53,3.53,0,0,1-.24.35,1.49,1.49,0,0,1,.41.48A1.23,1.23,0,0,1,33.36,14.36ZM30.31,12.8h1.15a.32.32,0,0,0,.23-.09.31.31,0,0,0-.23-.52H30.31Zm1.15,2a.25.25,0,0,0,.14,0l.12-.1a.64.64,0,0,0,.08-.14.39.39,0,0,0,0-.14.4.4,0,0,0,0-.15,1,1,0,0,0-.08-.14L31.6,14a.25.25,0,0,0-.14,0H30.8a.46.46,0,0,0-.49.42h0a.46.46,0,0,0,.49.43Z"/><path d="M44.17,14.81,44,15v.38a.58.58,0,0,1-.61.53h0a.57.57,0,0,1-.61-.53v-3.9a.57.57,0,0,1,.61-.53h0a.58.58,0,0,1,.61.53v2.14l.83-1a.64.64,0,0,1,.5-.22h0c.5,0,.79.49.49.84l-.65.78a0,0,0,0,0,0,.05l.7,1a.54.54,0,0,1-.53.8h0a.61.61,0,0,1-.52-.27Z"/><path d="M46.76,12.39h0a.57.57,0,0,1,.61.53v2.46a.57.57,0,0,1-.61.53h0a.57.57,0,0,1-.61-.53V12.92A.57.57,0,0,1,46.76,12.39Z"/><path d="M46.54,12a.7.7,0,0,1-.21-.11.59.59,0,0,1-.13-.18.46.46,0,0,1-.05-.21.49.49,0,0,1,.19-.39.68.68,0,0,1,.44-.16.71.71,0,0,1,.45.16.51.51,0,0,1,0,.78.7.7,0,0,1-.45.15"/><path class="cls-4" d="M27.77,10.33a1.05,1.05,0,0,1,.34.09l.24.07a1.14,1.14,0,0,1,.4.52.58.58,0,0,1-.09.57.44.44,0,0,1-.17.07c-.08.21-.27.18-.5.1A.71.71,0,0,0,28,12l0,0a.12.12,0,0,1-.11,0l-.08-.23c0-.07-.11-.13-.15-.2a.69.69,0,0,1-.43-.14l-.07-.13c-.05,0-.15,0-.2-.08a.43.43,0,0,1-.05-.51c.08-.14.21-.16.35-.24a.44.44,0,0,1,.17-.07Z"/><path class="cls-5" d="M27.76,10.42l-.34,0c-.05,0-.07,0-.11.06s-.37.12-.35.38a.31.31,0,0,0,0,.17c0,.07.15.07.23.11s.05.14.17.2a.83.83,0,0,0,.29.06.45.45,0,0,1,.2,0c.06.1.05.19.17.25s.26.07.31,0,0-.09.07-.12l.13,0a.44.44,0,0,0,.13-.36c0-.09-.06-.13-.1-.2l0-.08-.06-.09a.57.57,0,0,0-.28-.25l-.14,0A1.93,1.93,0,0,0,27.76,10.42Z"/><path class="cls-6" d="M27.42,10.46c0,.07,0,.15,0,.19s.11,0,.15,0h0a.19.19,0,0,1-.15,0,.14.14,0,0,1-.08.09s0-.06,0-.12l0,0S27.38,10.51,27.42,10.46Z"/><path class="cls-7" d="M27.74,10.5c.1,0,.19.07.19.16s.15,0,.22-.07h0c-.09.14-.1.05-.23.11s0,0,0,.07a.06.06,0,0,0,0,.06.18.18,0,0,1,0,.15h0a.16.16,0,0,0,0-.15l0,0h0c.06-.09.15-.21,0-.3s-.11,0-.14-.06Z"/><path class="cls-8" d="M28.48,10.88s0,.09,0,.12a.18.18,0,0,1-.06.32c0-.05.12-.12.1-.21a.18.18,0,0,0-.08-.09l-.07,0s-.08-.09-.15-.08l-.12.05v0h0c.06,0,.06,0,.11,0s.13.08.2.09S28.46,10.92,28.48,10.88Z"/><path class="cls-9" d="M27.71,10.8c0,.08,0,.15,0,.19a.32.32,0,0,0,.14,0h0a.32.32,0,0,1-.14,0,.11.11,0,0,1-.08.09h0s.06-.08,0-.12l0,0S27.69,10.83,27.71,10.8Z"/><path class="cls-10" d="M27.46,10.78s0,.09,0,.13c.14.09.07.26-.06.32,0-.06.13-.12.1-.22s-.07-.07-.14-.1-.08-.1-.15-.09l-.05,0s0,0-.07,0h0a.07.07,0,0,1,0-.05s.1-.05.15,0,.11.1.17.09S27.44,10.82,27.46,10.78Z"/><path class="cls-11" d="M27.24,11s0,.1,0,.13h.09l-.1,0s0,.06-.05.06h0C27.25,11.11,27.2,11,27.24,11Z"/><path class="cls-12" d="M28.36,11.1a.14.14,0,0,1,0,.11h0l0-.06,0,.06h0A.19.19,0,0,1,28.36,11.1Z"/><path class="cls-13" d="M28,11.3a.11.11,0,0,1-.08.1s.06-.08,0-.12a.21.21,0,0,1,0-.2h0a.44.44,0,0,0,0,.17.23.23,0,0,0,.16,0h0A.15.15,0,0,1,28,11.3Z"/><path class="cls-14" d="M28.2,11.12h0v.09c0,.07.08.15,0,.24s-.08,0-.13.06L28,11.6h0c0-.17.16-.12.2-.2S28.09,11.24,28.2,11.12Z"/><path class="cls-15" d="M27.65,11.17a.59.59,0,0,0,0,.13h0a.13.13,0,0,1,0,.06h0C27.65,11.33,27.6,11.24,27.65,11.17Z"/><path class="cls-16" d="M37.85,14.1a1.67,1.67,0,0,1-.16.7,2.07,2.07,0,0,1-.44.58,2.29,2.29,0,0,1-1.44.53,2.15,2.15,0,0,1-.8-.15,2,2,0,0,1-.64-.38,1.75,1.75,0,0,1-.44-.58,1.63,1.63,0,0,1,0-1.41,1.75,1.75,0,0,1,.44-.58,2.29,2.29,0,0,1,.64-.39,2.36,2.36,0,0,1,.8-.14,2.3,2.3,0,0,1,.79.14,2.34,2.34,0,0,1,.65.39,2.07,2.07,0,0,1,.44.58A1.68,1.68,0,0,1,37.85,14.1Zm-1.25.69a.87.87,0,0,0,.22-.32.94.94,0,0,0,.07-.37,1,1,0,0,0-.07-.39,1,1,0,0,0-.22-.32,1.23,1.23,0,0,0-.37-.21,1.17,1.17,0,0,0-.85,0,1.31,1.31,0,0,0-.36.21,1,1,0,0,0-.23.32,1.23,1.23,0,0,0-.07.39,1.16,1.16,0,0,0,.07.37.9.9,0,0,0,.23.32,1.34,1.34,0,0,0,.36.22,1.25,1.25,0,0,0,.43.07,1.23,1.23,0,0,0,.42-.07A1.25,1.25,0,0,0,36.6,14.79Z"/><path class="cls-16" d="M42.21,14.1a1.53,1.53,0,0,1-.16.7,1.87,1.87,0,0,1-.43.58,2.22,2.22,0,0,1-.65.38,2.25,2.25,0,0,1-2.24-.38,2.07,2.07,0,0,1-.44-.58,1.73,1.73,0,0,1,0-1.41,2.07,2.07,0,0,1,.44-.58,2.34,2.34,0,0,1,.65-.39,2.33,2.33,0,0,1,1.59,0,2.5,2.5,0,0,1,.65.39,1.87,1.87,0,0,1,.43.58A1.54,1.54,0,0,1,42.21,14.1ZM41,14.79a.79.79,0,0,0,.23-.32,1.16,1.16,0,0,0,.07-.37,1.23,1.23,0,0,0-.07-.39.87.87,0,0,0-.23-.32,1.31,1.31,0,0,0-.36-.21,1.17,1.17,0,0,0-.85,0,1.17,1.17,0,0,0-.36.21.87.87,0,0,0-.23.32,1,1,0,0,0-.07.39.94.94,0,0,0,.07.37.79.79,0,0,0,.23.32,1.2,1.2,0,0,0,.36.22,1.23,1.23,0,0,0,.42.07A1.25,1.25,0,0,0,40.6,15,1.34,1.34,0,0,0,41,14.79Z"/></svg>